<?xml version="1.0" encoding="utf-8"?>
<svg width="308" height="115" viewBox="20 0 308 115" fill="none" xmlns="http://www.w3.org/2000/svg">
  <mask id="mask0_0_1" style="mask-type:alpha" maskUnits="userSpaceOnUse" x="298" y="25" width="28" height="64">
    <path d="M299.378 40.0429L321.197 26.0165C323.645 24.4426 326.743 26.9635 325.829 29.7267C319.156 49.9035 319.515 64.2069 325.661 84.1563C326.549 87.0367 323.145 89.4712 320.775 87.6091L299.147 70.615C298.423 70.0463 298 69.1767 298 68.2561V42.5664C298 41.5456 298.519 40.5949 299.378 40.0429Z" fill="#D9D9D9"/>
  </mask>
  <g mask="url(#mask0_0_1)">
    <path d="M299.378 40.0429L324.378 23.9715C326.374 22.688 329 24.1215 329 26.495V87.8989C329 90.4022 326.115 91.8044 324.146 90.2579L299.147 70.615C298.423 70.0463 298 69.1767 298 68.2561V42.5664C298 41.5456 298.519 40.5949 299.378 40.0429Z" fill="#8C0A26"/>
    <path d="M307.964 47.5714L329 21V55.3214L307.964 47.5714Z" fill="#5E1121"/>
    <path d="M306.303 64.1785L329 51.9999V88.5356L306.303 64.1785Z" fill="#5E1121"/>
    <path d="M301 53.6606H329V87.8989C329 90.4022 326.115 91.8044 324.146 90.2578L299.147 70.615C298.423 70.0463 298 69.1767 298 68.2561V56.6606C298 55.0038 299.343 53.6606 301 53.6606Z" fill="#70061C" fill-opacity="0.56"/>
  </g>
  <path d="M299.378 40.0429L321.197 26.0165C323.645 24.4426 326.743 26.9635 325.829 29.7267C319.156 49.9035 319.515 64.2069 325.661 84.1563C326.549 87.0367 323.145 89.4712 320.775 87.6091L299.147 70.615C298.423 70.0463 298 69.1767 298 68.2561V42.5664C298 41.5456 298.519 40.5949 299.378 40.0429Z" stroke="url(#paint0_linear_0_1)" stroke-width="3"/>
  <mask id="mask1_0_1" style="mask-type:alpha" maskUnits="userSpaceOnUse" x="21" y="24" width="29" height="65">
    <path d="M48.6223 40.0429L25.7299 25.3264C23.3981 23.8274 20.4311 26.0292 21.13 28.7117C26.5674 49.5832 27.2927 64.0905 21.8151 84.6139C21.0507 87.4778 24.4235 89.8101 26.7542 87.9788L48.8535 70.6151C49.5773 70.0464 50 69.1768 50 68.2562V42.5664C50 41.5456 49.4809 40.5949 48.6223 40.0429Z" fill="#D9D9D9"/>
  </mask>
  <g mask="url(#mask1_0_1)">
    <path d="M48.6223 40.0429L23.6223 23.9715C21.6257 22.688 19 24.1215 19 26.495V87.899C19 90.4023 21.8851 91.8046 23.8535 90.258L48.8535 70.6151C49.5773 70.0464 50 69.1768 50 68.2562V42.5664C50 41.5456 49.4809 40.5949 48.6223 40.0429Z" fill="#8C0A26"/>
    <path d="M36.7143 42.5893L19 21L26.1964 54.2143L36.7143 42.5893Z" fill="#5E1121"/>
    <path d="M40.5893 66.3929L19 52V88.5357L40.5893 66.3929Z" fill="#5E1121"/>
    <path d="M46.4726 53.1834L19 58.0892V87.899C19 90.4023 21.8851 91.8045 23.8535 90.2579L48.8535 70.6151C49.5773 70.0463 50 69.1767 50 68.2561V56.1367C50 54.2688 48.3114 52.8551 46.4726 53.1834Z" fill="#70061C" fill-opacity="0.56"/>
  </g>
  <path d="M48.6223 40.0429L25.7299 25.3264C23.3981 23.8274 20.4398 26.0266 21.1588 28.7038C26.7306 49.4495 28.1721 63.5833 22.9179 83.9387C22.1745 86.8185 25.586 89.1551 27.9127 87.3023L48.8688 70.6151C49.5836 70.0459 50 69.182 50 68.2682V42.5664C50 41.5456 49.4809 40.5949 48.6223 40.0429Z" stroke="url(#paint1_linear_0_1)" stroke-width="3"/>
  <rect x="47" y="19" width="254" height="74" rx="22" fill="#B72B49"/>
  <mask id="mask2_0_1" style="mask-type:alpha" maskUnits="userSpaceOnUse" x="47" y="19" width="254" height="74">
    <rect x="47" y="19" width="254" height="74" rx="22" fill="#B72B49"/>
  </mask>
  <g mask="url(#mask2_0_1)">
    <path d="M255.5 15L309.5 61.5L312 112L81.5 98.5L255.5 15Z" fill="#C04761" fill-opacity="0.79"/>
  </g>
  <mask id="mask3_0_1" style="mask-type:alpha" maskUnits="userSpaceOnUse" x="47" y="19" width="254" height="74">
    <rect x="47" y="19" width="254" height="74" rx="22" fill="#B72B49"/>
  </mask>
  <g mask="url(#mask3_0_1)">
    <path d="M47.5 27L130 54L189 99L40 102.5L47.5 27Z" fill="#443A3C" fill-opacity="0.18"/>
  </g>
  <path fill-rule="evenodd" clip-rule="evenodd" d="M57.9024 22C51.3804 25.8176 47 32.8972 47 41V71C47 76.9871 49.3916 82.4156 53.2715 86.3823L71 22H57.9024ZM290.098 22H270L251 91H273L291.713 23.0428C291.191 22.6725 290.652 22.3245 290.098 22ZM300.726 37.5202L286 91H288.178C295.745 87.5216 301 79.8744 301 71V41C301 39.8159 300.906 38.6536 300.726 37.5202ZM107 22H85L66 91H88L107 22ZM122 22H144L125 91H103L122 22ZM181 22H159L140 91H162L181 22ZM196 22H218L199 91H177L196 22ZM255 22H233L214 91H236L255 22Z" fill="url(#paint2_linear_0_1)" fill-opacity="0.23"/>
  <rect x="49.5" y="21.5" width="249" height="69" rx="19.5" stroke="white" stroke-width="5"/>
  <mask id="mask4_0_1" style="mask-type:alpha" maskUnits="userSpaceOnUse" x="68" y="84" width="39" height="15">
    <rect x="68" y="84" width="39" height="15" fill="#D9D9D9"/>
  </mask>
  <g mask="url(#mask4_0_1)">
    <rect x="68" y="88" width="34" height="5" fill="url(#paint3_linear_0_1)"/>
  </g>
  <path d="M62 86.5C62.1813 86.5907 62.5893 86.7267 63.224 86.908C63.904 87.1347 65.4227 87.172 66.148 87.172C68.2333 87.172 70.024 86.356 71.52 84.724C73.0613 83.092 74.8747 80.304 76.96 76.36L67.508 41H78.388L83.352 65.072L93.756 41H99.332L82.604 75.748C79.8387 81.46 77.232 85.7214 74.784 88.532C72.3813 91.3427 71.1358 92.9727 68.0078 92.9727C66.9651 92.9727 64.6507 92.4294 63.88 92.248C63.1547 92.112 62.588 91.9534 62.18 91.772C61.8173 91.636 61.5907 91.5454 61.5 91.5L62 86.5Z" fill="white"/>
  <path d="M117.051 58.816H98.6231L99.3031 53.784H117.731L117.051 58.816Z" fill="white"/>
  <path d="M121.356 67.384C121.356 67.4747 121.65 67.86 122.24 68.54C122.874 69.22 123.69 69.8547 124.688 70.444C125.73 70.988 126.932 71.26 128.292 71.26C130.15 71.26 131.556 70.7614 132.508 69.764C133.505 68.7667 134.004 67.52 134.004 66.024C134.004 64.8454 133.618 63.916 132.848 63.236C132.077 62.5107 130.83 61.6494 129.108 60.652C127.657 59.836 126.478 59.088 125.572 58.408C124.665 57.728 123.872 56.844 123.192 55.756C122.557 54.6227 122.24 53.2627 122.24 51.676C122.24 49.1827 122.874 47.0747 124.144 45.352C125.413 43.6294 127.068 42.36 129.108 41.544C131.193 40.6827 133.437 40.252 135.84 40.252C137.29 40.252 138.696 40.4787 140.056 40.932C141.416 41.34 142.526 41.7707 143.388 42.224C144.249 42.6774 144.793 42.972 145.02 43.108L143.592 47.664C143.365 47.528 142.844 47.2334 142.028 46.78C141.257 46.2814 140.305 45.8054 139.172 45.352C138.084 44.8987 137.041 44.672 136.044 44.672C134.502 44.672 133.278 45.08 132.372 45.896C131.51 46.6667 131.08 47.6867 131.08 48.956C131.08 50.18 131.51 51.2 132.372 52.016C133.278 52.7867 134.638 53.6707 136.452 54.668C138.038 55.5747 139.308 56.3907 140.26 57.116C141.257 57.796 142.096 58.7027 142.776 59.836C143.456 60.9694 143.796 62.3294 143.796 63.916C143.796 67.452 142.572 70.308 140.124 72.484C137.676 74.66 134.094 75.748 129.38 75.748C126.796 75.748 124.688 75.3854 123.056 74.66C121.424 73.9347 120.222 73.1867 119.452 72.416C118.681 71.6 118.296 71.1014 118.296 70.92L121.356 67.384Z" fill="white"/>
  <path d="M196.427 41L181.739 75H174.463L171.471 52.832V52.764H171.267L161.883 75H154.607L149.643 41H159.911L161.747 63.644H161.951L171.539 41H177.795L181.739 63.644H181.943L190.579 41H196.427Z" fill="white"/>
  <path d="M223.03 69.9C223.03 70.0814 222.531 70.6707 221.534 71.668C220.537 72.6654 219.109 73.5947 217.25 74.456C215.391 75.3174 213.125 75.748 210.45 75.748C206.053 75.748 202.494 74.592 199.774 72.28C197.099 69.9227 195.762 66.4094 195.762 61.74C195.762 57.252 196.533 53.3987 198.074 50.18C199.661 46.9614 201.837 44.5134 204.602 42.836C207.367 41.1587 210.495 40.32 213.986 40.32C217.522 40.32 220.31 41.2267 222.35 43.04C224.39 44.8534 225.41 47.12 225.41 49.84C225.41 54.328 223.415 57.252 219.426 58.612C215.437 59.972 210.677 60.652 205.146 60.652C205.101 61.2867 205.078 62.284 205.078 63.644C205.078 66.364 205.69 68.3134 206.914 69.492C208.183 70.6254 209.951 71.192 212.218 71.192C213.759 71.192 215.119 70.92 216.298 70.376C217.522 69.832 218.497 69.2427 219.222 68.608C219.947 67.928 220.31 67.5427 220.31 67.452L223.03 69.9ZM212.898 44.672C210.994 44.672 209.385 45.692 208.07 47.732C206.755 49.772 205.871 52.7867 205.418 56.776C207.775 56.776 209.793 56.6174 211.47 56.3C213.147 55.9374 214.53 55.1894 215.618 54.056C216.751 52.9227 217.318 51.2227 217.318 48.956C217.318 46.1 215.845 44.672 212.898 44.672Z" fill="white"/>
  <path d="M255.237 69.9C255.237 70.0814 254.738 70.6707 253.741 71.668C252.744 72.6654 251.316 73.5947 249.457 74.456C247.598 75.3174 245.332 75.748 242.657 75.748C238.26 75.748 234.701 74.592 231.981 72.28C229.306 69.9227 227.969 66.4094 227.969 61.74C227.969 57.252 228.74 53.3987 230.281 50.18C231.868 46.9614 234.044 44.5134 236.809 42.836C239.574 41.1587 242.702 40.32 246.193 40.32C249.729 40.32 252.517 41.2267 254.557 43.04C256.597 44.8534 257.617 47.12 257.617 49.84C257.617 54.328 255.622 57.252 251.633 58.612C247.644 59.972 242.884 60.652 237.353 60.652C237.308 61.2867 237.285 62.284 237.285 63.644C237.285 66.364 237.897 68.3134 239.121 69.492C240.39 70.6254 242.158 71.192 244.425 71.192C245.966 71.192 247.326 70.92 248.505 70.376C249.729 69.832 250.704 69.2427 251.429 68.608C252.154 67.928 252.517 67.5427 252.517 67.452L255.237 69.9ZM245.105 44.672C243.201 44.672 241.592 45.692 240.277 47.732C238.962 49.772 238.078 52.7867 237.625 56.776C239.982 56.776 242 56.6174 243.677 56.3C245.354 55.9374 246.737 55.1894 247.825 54.056C248.958 52.9227 249.525 51.2227 249.525 48.956C249.525 46.1 248.052 44.672 245.105 44.672Z" fill="white"/>
  <path d="M274.524 46.236L272.144 63.032C271.917 64.4827 271.804 65.9107 271.804 67.316C271.804 68.676 271.985 69.6054 272.348 70.104C272.756 70.6027 273.413 70.852 274.32 70.852C275.227 70.852 275.997 70.784 276.632 70.648C277.312 70.4667 277.743 70.3307 277.924 70.24L277.856 74.116C277.856 74.1614 277.584 74.32 277.04 74.592C276.496 74.864 275.703 75.1134 274.66 75.34C273.617 75.612 272.325 75.748 270.784 75.748C268.019 75.748 265.956 75.1814 264.596 74.048C263.281 72.8694 262.624 70.9654 262.624 68.336C262.624 67.4294 262.692 66.432 262.828 65.344L265.48 46.236H262.216L262.828 42.156L266.296 41.272L272.28 29.712H276.836L275.272 41H282.752L282.004 46.236H274.524Z" fill="white"/>
  <path fill-rule="evenodd" clip-rule="evenodd" d="M301 52.8462L47 60.8392V41C47 28.8497 56.8497 19 69 19H279C291.15 19 301 28.8497 301 41V52.8462Z" fill="white" fill-opacity="0.13"/>
  <defs>
    <linearGradient id="paint0_linear_0_1" x1="285.821" y1="51.4464" x2="309.625" y2="52.5535" gradientUnits="userSpaceOnUse">
      <stop/>
      <stop offset="1" stop-color="white"/>
    </linearGradient>
    <linearGradient id="paint1_linear_0_1" x1="38.375" y1="57.5357" x2="61.0714" y2="57.5357" gradientUnits="userSpaceOnUse">
      <stop stop-color="white"/>
      <stop offset="1"/>
    </linearGradient>
    <linearGradient id="paint2_linear_0_1" x1="174" y1="22" x2="174" y2="91" gradientUnits="userSpaceOnUse">
      <stop stop-color="#FD9800"/>
      <stop offset="0.5" stop-color="#FD9800" stop-opacity="0.16"/>
      <stop offset="1" stop-color="#FD9800"/>
    </linearGradient>
    <linearGradient id="paint3_linear_0_1" x1="67.5" y1="84.5" x2="81" y2="96" gradientUnits="userSpaceOnUse">
      <stop/>
      <stop offset="1" stop-color="white" stop-opacity="0"/>
    </linearGradient>
  </defs>
</svg>