<svg width="319" height="85" viewBox="0 0 319 85" fill="none" xmlns="http://www.w3.org/2000/svg">
<path d="M285.378 26.0429L307.197 12.0165C309.645 10.4426 312.743 12.9635 311.829 15.7267C305.156 35.9035 305.515 50.2069 311.661 70.1563C312.549 73.0367 309.145 75.4712 306.775 73.6091L285.147 56.615C284.423 56.0463 284 55.1767 284 54.2561V28.5664C284 27.5456 284.519 26.5949 285.378 26.0429Z" stroke="#0D1116" stroke-width="13"/>
<path d="M34.6223 26.0429L11.73 11.3264C9.39814 9.82737 6.43981 12.0266 7.15884 14.7038C12.7306 35.4495 14.1721 49.5833 8.91787 69.9387C8.17451 72.8185 11.586 75.1551 13.9127 73.3023L34.8688 56.6151C35.5836 56.0459 36 55.182 36 54.2682V28.5664C36 27.5456 35.4809 26.5949 34.6223 26.0429Z" stroke="#0D1116" stroke-width="13"/>
<rect x="30.5" y="2.50002" width="259" height="79" rx="24.5" stroke="#0D1116" stroke-width="5"/>
<mask id="mask0_26_87" style="mask-type:alpha" maskUnits="userSpaceOnUse" x="284" y="11" width="28" height="64">
<path d="M285.378 26.0429L307.197 12.0165C309.645 10.4426 312.743 12.9635 311.829 15.7267C305.156 35.9035 305.515 50.2069 311.661 70.1563C312.549 73.0367 309.145 75.4712 306.775 73.6091L285.147 56.615C284.423 56.0463 284 55.1767 284 54.2561V28.5664C284 27.5456 284.519 26.5949 285.378 26.0429Z" fill="#D9D9D9"/>
</mask>
<g mask="url(#mask0_26_87)">
<path d="M285.378 26.0429L310.378 9.97147C312.374 8.68798 315 10.1215 315 12.495V73.8989C315 76.4022 312.115 77.8044 310.146 76.2579L285.147 56.615C284.423 56.0463 284 55.1767 284 54.2561V28.5664C284 27.5456 284.519 26.5949 285.378 26.0429Z" fill="#8C0A26"/>
<path d="M293.964 33.5714L315 7.00001V41.3214L293.964 33.5714Z" fill="#5E1121"/>
<path d="M292.303 50.1785L315 37.9999V74.5356L292.303 50.1785Z" fill="#5E1121"/>
<path d="M287 39.6607H315V73.8989C315 76.4022 312.115 77.8044 310.146 76.2579L285.147 56.615C284.423 56.0463 284 55.1767 284 54.2561V42.6607C284 41.0038 285.343 39.6607 287 39.6607Z" fill="#70061C" fill-opacity="0.56"/>
</g>
<path d="M285.378 26.0429L307.197 12.0165C309.645 10.4426 312.743 12.9635 311.829 15.7267C305.156 35.9035 305.515 50.2069 311.661 70.1563C312.549 73.0367 309.145 75.4712 306.775 73.6091L285.147 56.615C284.423 56.0463 284 55.1767 284 54.2561V28.5664C284 27.5456 284.519 26.5949 285.378 26.0429Z" stroke="url(#paint0_linear_26_87)" stroke-width="3"/>
<mask id="mask1_26_87" style="mask-type:alpha" maskUnits="userSpaceOnUse" x="7" y="10" width="29" height="65">
<path d="M34.6223 26.0429L11.7299 11.3264C9.39814 9.82735 6.43111 12.0292 7.12996 14.7117C12.5674 35.5832 13.2927 50.0905 7.8151 70.6139C7.05074 73.4778 10.4235 75.8101 12.7542 73.9788L34.8535 56.6151C35.5773 56.0464 36 55.1767 36 54.2562V28.5664C36 27.5456 35.4809 26.5949 34.6223 26.0429Z" fill="#D9D9D9"/>
</mask>
<g mask="url(#mask1_26_87)">
<path d="M34.6223 26.0429L9.62227 9.97144C7.62574 8.68795 5 10.1215 5 12.495V73.899C5 76.4023 7.88508 77.8046 9.85347 76.258L34.8535 56.6151C35.5773 56.0464 36 55.1767 36 54.2562V28.5664C36 27.5456 35.4809 26.5949 34.6223 26.0429Z" fill="#8C0A26"/>
<path d="M22.7143 28.5893L5 6.99998L12.1964 40.2143L22.7143 28.5893Z" fill="#5E1121"/>
<path d="M26.5893 52.3928L5 38V74.5357L26.5893 52.3928Z" fill="#5E1121"/>
<path d="M32.4726 39.1834L5 44.0893V73.899C5 76.4023 7.88508 77.8046 9.85347 76.258L34.8535 56.6151C35.5773 56.0464 36 55.1767 36 54.2562V42.1367C36 40.2688 34.3114 38.8551 32.4726 39.1834Z" fill="#70061C" fill-opacity="0.56"/>
</g>
<path d="M34.6223 26.0429L11.7299 11.3264C9.39814 9.82737 6.4398 12.0265 7.15883 14.7037C12.7306 35.4495 14.1721 49.5833 8.91786 69.9387C8.1745 72.8185 11.586 75.1551 13.9127 73.3023L34.8688 56.6151C35.5836 56.0459 36 55.182 36 54.2682V28.5664C36 27.5456 35.4809 26.5949 34.6223 26.0429Z" stroke="url(#paint1_linear_26_87)" stroke-width="3"/>
<rect x="33" y="5.00002" width="254" height="74" rx="22" fill="#B72B49"/>
<mask id="mask2_26_87" style="mask-type:alpha" maskUnits="userSpaceOnUse" x="33" y="5" width="254" height="74">
<rect x="33" y="5.00002" width="254" height="74" rx="22" fill="#B72B49"/>
</mask>
<g mask="url(#mask2_26_87)">
<path d="M241.5 1.00002L295.5 47.5L298 98L67.5 84.5L241.5 1.00002Z" fill="#C04761" fill-opacity="0.79"/>
</g>
<mask id="mask3_26_87" style="mask-type:alpha" maskUnits="userSpaceOnUse" x="33" y="5" width="254" height="74">
<rect x="33" y="5.00002" width="254" height="74" rx="22" fill="#B72B49"/>
</mask>
<g mask="url(#mask3_26_87)">
<path d="M33.5 13L116 40L175 85L26 88.5L33.5 13Z" fill="#443A3C" fill-opacity="0.18"/>
</g>
<path fill-rule="evenodd" clip-rule="evenodd" d="M43.9024 8.00002C37.3804 11.8176 33 18.8973 33 27V57C33 62.9871 35.3916 68.4156 39.2715 72.3823L57 8.00002L43.9024 8.00002ZM276.098 8.00002H256L237 77H259L277.713 9.0428C277.191 8.67256 276.652 8.3245 276.098 8.00002ZM286.726 23.5202L272 77H274.178C281.745 73.5216 287 65.8744 287 57V27C287 25.8159 286.906 24.6536 286.726 23.5202ZM93 8.00002H71L52 77H74L93 8.00002ZM108 8.00002H130L111 77H89L108 8.00002ZM167 8.00002H145L126 77H148L167 8.00002ZM182 8.00002H204L185 77H163L182 8.00002ZM241 8.00002H219L200 77H222L241 8.00002Z" fill="url(#paint2_linear_26_87)" fill-opacity="0.23"/>
<rect x="35.5" y="7.50002" width="249" height="69" rx="19.5" stroke="white" stroke-width="5"/>
<mask id="mask4_26_87" style="mask-type:alpha" maskUnits="userSpaceOnUse" x="54" y="70" width="39" height="15">
<rect x="54" y="70" width="39" height="15" fill="#D9D9D9"/>
</mask>
<g mask="url(#mask4_26_87)">
<rect x="54" y="74" width="34" height="5" fill="url(#paint3_linear_26_87)"/>
</g>
<path d="M48 72.5C48.1813 72.5907 48.5893 72.7267 49.224 72.908C49.904 73.1347 51.4227 73.172 52.148 73.172C54.2333 73.172 56.024 72.356 57.52 70.724C59.0613 69.092 60.8747 66.304 62.96 62.36L53.508 27H64.388L69.352 51.072L79.756 27H85.332L68.604 61.748C65.8387 67.46 63.232 71.7213 60.784 74.532C58.3813 77.3427 57.1358 78.9726 54.0078 78.9726C52.9651 78.9726 50.6507 78.4293 49.88 78.248C49.1547 78.112 48.588 77.9533 48.18 77.772C47.8173 77.636 47.5907 77.5453 47.5 77.5L48 72.5Z" fill="white"/>
<path d="M103.051 44.816H84.6231L85.3031 39.784H103.731L103.051 44.816Z" fill="white"/>
<path d="M107.356 53.384C107.356 53.4747 107.65 53.86 108.24 54.54C108.874 55.22 109.69 55.8547 110.688 56.444C111.73 56.988 112.932 57.26 114.292 57.26C116.15 57.26 117.556 56.7613 118.508 55.764C119.505 54.7667 120.004 53.52 120.004 52.024C120.004 50.8453 119.618 49.916 118.848 49.236C118.077 48.5107 116.83 47.6493 115.108 46.652C113.657 45.836 112.478 45.088 111.572 44.408C110.665 43.728 109.872 42.844 109.192 41.756C108.557 40.6227 108.24 39.2627 108.24 37.676C108.24 35.1827 108.874 33.0747 110.144 31.352C111.413 29.6293 113.068 28.36 115.108 27.544C117.193 26.6827 119.437 26.252 121.84 26.252C123.29 26.252 124.696 26.4787 126.056 26.932C127.416 27.34 128.526 27.7707 129.388 28.224C130.249 28.6773 130.793 28.972 131.02 29.108L129.592 33.664C129.365 33.528 128.844 33.2333 128.028 32.78C127.257 32.2813 126.305 31.8053 125.172 31.352C124.084 30.8987 123.041 30.672 122.044 30.672C120.502 30.672 119.278 31.08 118.372 31.896C117.51 32.6667 117.08 33.6867 117.08 34.956C117.08 36.18 117.51 37.2 118.372 38.016C119.278 38.7867 120.638 39.6707 122.452 40.668C124.038 41.5747 125.308 42.3907 126.26 43.116C127.257 43.796 128.096 44.7027 128.776 45.836C129.456 46.9693 129.796 48.3293 129.796 49.916C129.796 53.452 128.572 56.308 126.124 58.484C123.676 60.66 120.094 61.748 115.38 61.748C112.796 61.748 110.688 61.3853 109.056 60.66C107.424 59.9347 106.222 59.1867 105.452 58.416C104.681 57.6 104.296 57.1013 104.296 56.92L107.356 53.384Z" fill="white"/>
<path d="M182.427 27L167.739 61H160.463L157.471 38.832V38.764H157.267L147.883 61H140.607L135.643 27H145.911L147.747 49.644H147.951L157.539 27H163.795L167.739 49.644H167.943L176.579 27H182.427Z" fill="white"/>
<path d="M209.03 55.9C209.03 56.0813 208.531 56.6707 207.534 57.668C206.537 58.6653 205.109 59.5947 203.25 60.456C201.391 61.3173 199.125 61.748 196.45 61.748C192.053 61.748 188.494 60.592 185.774 58.28C183.099 55.9227 181.762 52.4093 181.762 47.74C181.762 43.252 182.533 39.3987 184.074 36.18C185.661 32.9613 187.837 30.5133 190.602 28.836C193.367 27.1587 196.495 26.32 199.986 26.32C203.522 26.32 206.31 27.2267 208.35 29.04C210.39 30.8533 211.41 33.12 211.41 35.84C211.41 40.328 209.415 43.252 205.426 44.612C201.437 45.972 196.677 46.652 191.146 46.652C191.101 47.2867 191.078 48.284 191.078 49.644C191.078 52.364 191.69 54.3133 192.914 55.492C194.183 56.6253 195.951 57.192 198.218 57.192C199.759 57.192 201.119 56.92 202.298 56.376C203.522 55.832 204.497 55.2427 205.222 54.608C205.947 53.928 206.31 53.5427 206.31 53.452L209.03 55.9ZM198.898 30.672C196.994 30.672 195.385 31.692 194.07 33.732C192.755 35.772 191.871 38.7867 191.418 42.776C193.775 42.776 195.793 42.6173 197.47 42.3C199.147 41.9373 200.53 41.1893 201.618 40.056C202.751 38.9227 203.318 37.2227 203.318 34.956C203.318 32.1 201.845 30.672 198.898 30.672Z" fill="white"/>
<path d="M241.237 55.9C241.237 56.0813 240.738 56.6707 239.741 57.668C238.744 58.6653 237.316 59.5947 235.457 60.456C233.598 61.3173 231.332 61.748 228.657 61.748C224.26 61.748 220.701 60.592 217.981 58.28C215.306 55.9227 213.969 52.4093 213.969 47.74C213.969 43.252 214.74 39.3987 216.281 36.18C217.868 32.9613 220.044 30.5133 222.809 28.836C225.574 27.1587 228.702 26.32 232.193 26.32C235.729 26.32 238.517 27.2267 240.557 29.04C242.597 30.8533 243.617 33.12 243.617 35.84C243.617 40.328 241.622 43.252 237.633 44.612C233.644 45.972 228.884 46.652 223.353 46.652C223.308 47.2867 223.285 48.284 223.285 49.644C223.285 52.364 223.897 54.3133 225.121 55.492C226.39 56.6253 228.158 57.192 230.425 57.192C231.966 57.192 233.326 56.92 234.505 56.376C235.729 55.832 236.704 55.2427 237.429 54.608C238.154 53.928 238.517 53.5427 238.517 53.452L241.237 55.9ZM231.105 30.672C229.201 30.672 227.592 31.692 226.277 33.732C224.962 35.772 224.078 38.7867 223.625 42.776C225.982 42.776 228 42.6173 229.677 42.3C231.354 41.9373 232.737 41.1893 233.825 40.056C234.958 38.9227 235.525 37.2227 235.525 34.956C235.525 32.1 234.052 30.672 231.105 30.672Z" fill="white"/>
<path d="M260.524 32.236L258.144 49.032C257.917 50.4827 257.804 51.9107 257.804 53.316C257.804 54.676 257.985 55.6053 258.348 56.104C258.756 56.6027 259.413 56.852 260.32 56.852C261.227 56.852 261.997 56.784 262.632 56.648C263.312 56.4667 263.743 56.3307 263.924 56.24L263.856 60.116C263.856 60.1613 263.584 60.32 263.04 60.592C262.496 60.864 261.703 61.1133 260.66 61.34C259.617 61.612 258.325 61.748 256.784 61.748C254.019 61.748 251.956 61.1813 250.596 60.048C249.281 58.8693 248.624 56.9653 248.624 54.336C248.624 53.4293 248.692 52.432 248.828 51.344L251.48 32.236H248.216L248.828 28.156L252.296 27.272L258.28 15.712H262.836L261.272 27H268.752L268.004 32.236H260.524Z" fill="white"/>
<path fill-rule="evenodd" clip-rule="evenodd" d="M287 38.8462L33 46.8392V27C33 14.8498 42.8497 5.00002 55 5.00002H265C277.15 5.00002 287 14.8498 287 27V38.8462Z" fill="white" fill-opacity="0.13"/>
<defs>
<linearGradient id="paint0_linear_26_87" x1="271.821" y1="37.4464" x2="295.625" y2="38.5535" gradientUnits="userSpaceOnUse">
<stop/>
<stop offset="1" stop-color="white"/>
</linearGradient>
<linearGradient id="paint1_linear_26_87" x1="24.375" y1="43.5357" x2="47.0714" y2="43.5357" gradientUnits="userSpaceOnUse">
<stop stop-color="white"/>
<stop offset="1"/>
</linearGradient>
<linearGradient id="paint2_linear_26_87" x1="160" y1="8.00002" x2="160" y2="77" gradientUnits="userSpaceOnUse">
<stop stop-color="#FD9800"/>
<stop offset="0.5" stop-color="#FD9800" stop-opacity="0.16"/>
<stop offset="1" stop-color="#FD9800"/>
</linearGradient>
<linearGradient id="paint3_linear_26_87" x1="53.5" y1="70.5" x2="67" y2="82" gradientUnits="userSpaceOnUse">
<stop/>
<stop offset="1" stop-color="white" stop-opacity="0"/>
</linearGradient>
</defs>
</svg>
