<svg
  width="116"
  height="95"
  viewBox="0 0 116 95"
  fill="none"
  xmlns="http://www.w3.org/2000/svg"
>
  <path
    d="M5.80661 72.5407C6.05684 72.3547 6.29796 72.2641 6.52996 72.2689C6.77244 72.273 6.97216 72.3433 7.12913 72.4797C7.29584 72.6049 7.39287 72.7877 7.42021 73.028C7.45729 73.257 7.39593 73.5088 7.23612 73.7832C7.13332 73.9694 6.97703 74.1436 6.76724 74.3057C6.56793 74.467 6.37166 74.5966 6.17843 74.6944C5.73203 74.9362 5.27232 75.0631 4.79931 75.0752C4.3263 75.0872 3.87813 75.0027 3.4548 74.8217C3.04194 74.64 2.67598 74.3761 2.35692 74.0298C2.03712 73.6731 1.8076 73.2522 1.66835 72.767C1.39279 71.8386 1.37129 70.9293 1.60384 70.039C1.69711 69.7166 1.81207 69.4032 1.94872 69.0988C2.09585 68.7936 2.27625 68.5125 2.48992 68.2553C2.70359 67.9982 2.94565 67.7707 3.21612 67.5727C3.48584 67.3643 3.78617 67.2169 4.11709 67.1306C4.34469 67.0726 4.63846 67.0573 4.9984 67.0847C5.35761 67.1017 5.70964 67.1666 6.05449 67.2794C6.40982 67.3914 6.72093 67.5486 6.98781 67.7511C7.26518 67.9528 7.43021 68.2045 7.48291 68.5062C7.5156 68.6724 7.50564 68.831 7.45303 68.9821C7.39969 69.1228 7.31868 69.2443 7.21002 69.3466C7.10135 69.449 6.96989 69.5267 6.81564 69.5796C6.67114 69.6213 6.51883 69.6267 6.35872 69.5957C6.16644 69.5566 6.00973 69.4991 5.8886 69.4233C5.77721 69.3363 5.62732 69.2257 5.43891 69.0915C5.35362 69.0764 5.27283 69.0505 5.19655 69.0137C5.11953 68.9664 5.03947 68.951 4.95637 68.9673L4.53529 69.0441C4.46487 69.0912 4.39932 69.1326 4.33865 69.1685C4.27798 69.2043 4.2173 69.2401 4.15663 69.276C3.82528 69.6572 3.59117 70.0737 3.45431 70.5255C3.31671 70.9669 3.30742 71.4361 3.42644 71.9332C3.50156 72.2544 3.61981 72.5147 3.78117 72.714C3.95302 72.9125 4.14142 73.0468 4.34638 73.1167C4.56109 73.1754 4.78675 73.1648 5.02336 73.0851C5.27045 73.0046 5.5068 72.846 5.73242 72.609L5.80661 72.5407ZM11.2773 73.153C11.3999 73.2497 11.5037 73.3793 11.5888 73.5419C11.6836 73.6932 11.7369 73.8527 11.7486 74.0203C11.7701 74.1768 11.7437 74.326 11.6694 74.4681C11.6063 74.62 11.4778 74.7395 11.2838 74.8268C11.1303 74.8902 10.9581 74.9128 10.7673 74.8945C10.5765 74.8763 10.3835 74.8266 10.1883 74.7455C10.0035 74.6637 9.83305 74.5598 9.67681 74.4338C9.53179 74.3176 9.42235 74.1831 9.34848 74.0303C9.32385 73.9794 9.3041 73.9228 9.28922 73.8607C9.27361 73.7881 9.26397 73.7256 9.26031 73.6732L8.64994 64.9496C8.63308 64.7086 8.70785 64.4981 8.87426 64.3179C9.05114 64.1371 9.24851 64.0232 9.46637 63.9764C9.57042 63.9586 9.68155 63.9666 9.79975 64.0005C9.92842 64.0336 10.0481 64.0884 10.1587 64.1649C10.2687 64.2309 10.3587 64.3141 10.4289 64.4145C10.5096 64.5142 10.554 64.6216 10.562 64.7369C10.5811 65.0093 10.6064 65.3708 10.6379 65.8214C10.6695 66.272 10.7039 66.7645 10.7413 67.2989C10.7892 67.8326 10.8333 68.3876 10.8736 68.9639C10.9132 69.5298 10.9461 70.0751 10.9723 70.5997C11.0089 71.1237 11.0426 71.6057 11.0734 72.0458C11.1035 72.4754 11.1225 72.8216 11.1303 73.0843L11.2773 73.153ZM15.0694 73.4247C15.0631 73.6357 15.0026 73.8242 14.8878 73.9902C14.7738 74.1667 14.6355 74.2974 14.473 74.3825C14.321 74.4669 14.1492 74.4947 13.9576 74.466C13.7661 74.4373 13.5903 74.3337 13.4304 74.1554C13.3393 74.0564 13.2683 73.9456 13.2176 73.8228C13.1767 73.6887 13.1462 73.554 13.1262 73.4185C13.1054 73.2725 13.0903 73.1314 13.0808 72.9952C13.081 72.8478 13.077 72.7164 13.069 72.6012C13.0152 71.9836 12.9671 71.371 12.9246 70.7632C12.8925 70.1547 12.8497 69.5417 12.7959 68.9242C12.7783 68.6727 12.745 68.4223 12.696 68.1731C12.6462 67.9133 12.644 67.6555 12.6892 67.3996C12.7284 67.2073 12.8061 67.0386 12.9224 66.8936C13.0491 66.7479 13.1892 66.6433 13.3427 66.5799C13.5067 66.5158 13.674 66.4988 13.8445 66.529C14.0256 66.5584 14.1853 66.6578 14.3235 66.8272C14.5058 67.025 14.6043 67.2287 14.6189 67.4383C14.6329 67.6374 14.6501 67.8836 14.6706 68.177C14.6956 68.5333 14.7205 68.8896 14.7454 69.2459C14.7703 69.6021 14.8001 69.9528 14.8348 70.2979C14.8805 70.8001 14.9209 71.3027 14.9561 71.8057C14.9913 72.3087 15.0265 72.8117 15.0617 73.3147L15.0694 73.4247ZM12.3688 64.6263C12.3836 64.2356 12.4948 63.9435 12.7024 63.75C12.9197 63.5452 13.1545 63.4393 13.4067 63.4322C13.6582 63.4146 13.8954 63.4928 14.1181 63.6667C14.3514 63.84 14.4853 64.0991 14.52 64.4442C14.5659 64.799 14.491 65.0833 14.2954 65.297C14.1095 65.4996 13.8866 65.6257 13.6269 65.6755C13.3664 65.7148 13.115 65.6586 12.8727 65.5071C12.6305 65.3556 12.4703 65.0983 12.3923 64.7352L12.3688 64.6263ZM20.6288 71.5036C20.879 71.3176 21.1202 71.227 21.3522 71.2318C21.5946 71.2359 21.7944 71.3062 21.9513 71.4426C22.118 71.5679 22.2151 71.7506 22.2424 71.9909C22.2795 72.22 22.2181 72.4717 22.0583 72.7461C21.9555 72.9323 21.7992 73.1065 21.5894 73.2686C21.3901 73.43 21.1939 73.5595 21.0006 73.6573C20.5542 73.8991 20.0945 74.0261 19.6215 74.0381C19.1485 74.0501 18.7003 73.9657 18.277 73.7847C17.8641 73.603 17.4982 73.339 17.1791 72.9928C16.8593 72.6361 16.6298 72.2151 16.4906 71.73C16.215 70.8015 16.1935 69.8922 16.426 69.0019C16.5193 68.6795 16.6343 68.3661 16.7709 68.0617C16.9181 67.7565 17.0985 67.4754 17.3121 67.2183C17.5258 66.9611 17.7679 66.7336 18.0383 66.5357C18.308 66.3272 18.6084 66.1799 18.9393 66.0935C19.1669 66.0355 19.4607 66.0202 19.8206 66.0477C20.1798 66.0647 20.5318 66.1295 20.8767 66.2423C21.232 66.3543 21.5431 66.5116 21.81 66.714C22.0874 66.9157 22.2524 67.1674 22.3051 67.4691C22.3378 67.6353 22.3278 67.794 22.2752 67.9451C22.2219 68.0857 22.1409 68.2072 22.0322 68.3096C21.9236 68.4119 21.7921 68.4896 21.6378 68.5425C21.4933 68.5842 21.341 68.5896 21.1809 68.5587C20.9886 68.5195 20.8319 68.462 20.7108 68.3862C20.5994 68.2993 20.4495 68.1886 20.2611 68.0544C20.1758 68.0393 20.095 68.0134 20.0187 67.9766C19.9417 67.9293 19.8617 67.9139 19.7786 67.9302L19.3575 68.0071C19.2871 68.0541 19.2215 68.0956 19.1609 68.1314C19.1002 68.1672 19.0395 68.2031 18.9788 68.2389C18.6475 68.6201 18.4134 69.0366 18.2765 69.4885C18.1389 69.9298 18.1296 70.3991 18.2486 70.8962C18.3238 71.2173 18.442 71.4776 18.6034 71.6769C18.7752 71.8755 18.9636 72.0097 19.1686 72.0796C19.3833 72.1383 19.6089 72.1278 19.8456 72.048C20.0927 71.9676 20.329 71.8089 20.5546 71.572L20.6288 71.5036ZM25.6466 72.6214C25.608 72.9716 25.489 73.2274 25.2897 73.3888C25.0911 73.5606 24.8762 73.6494 24.6449 73.655C24.4241 73.6599 24.2184 73.5796 24.0278 73.4139C23.8484 73.258 23.7481 73.0281 23.7268 72.7242L23.1 63.7649C23.089 63.6077 23.121 63.4633 23.196 63.3317C23.2808 63.1889 23.3884 63.0708 23.5187 62.9774C23.6491 62.884 23.7921 62.8214 23.9478 62.7894C24.1133 62.7463 24.2656 62.7409 24.4048 62.7733C24.5432 62.7952 24.6639 62.8657 24.7671 62.9848C24.8799 63.0928 24.9489 63.2511 24.974 63.46C25.0627 64.2751 25.1297 65.0075 25.1752 65.6572C25.2206 66.3069 25.2612 66.9622 25.2969 67.6231C25.5255 67.4281 25.7379 67.2289 25.9343 67.0257C26.1404 66.8112 26.3409 66.5918 26.5359 66.3676C26.7105 66.1553 26.8785 65.9224 27.0398 65.6689C27.2003 65.405 27.4135 65.2163 27.6794 65.1029C27.8741 65.0261 28.0567 65.0028 28.2273 65.033C28.4084 65.0625 28.561 65.136 28.685 65.2537C28.8188 65.3602 28.9129 65.501 28.9673 65.6762C29.0209 65.8409 29.0233 66.025 28.9744 66.2285C28.9322 66.3789 28.8246 66.5707 28.6513 66.804C28.4886 67.0365 28.3 67.2761 28.0856 67.5227C27.8817 67.7687 27.6767 67.9989 27.4705 68.2134C27.2637 68.4174 27.0958 68.5765 26.9669 68.6909C27.3615 69.0634 27.7513 69.4415 28.1362 69.8253C28.521 70.209 28.9111 70.5924 29.3065 70.9754C29.4761 71.1425 29.6342 71.2947 29.7807 71.4319C29.9369 71.5578 30.0744 71.7167 30.1931 71.9085C30.2887 72.0702 30.327 72.2413 30.308 72.4217C30.289 72.602 30.2263 72.7591 30.1198 72.8929C30.0246 73.0364 29.8953 73.1455 29.7321 73.2201C29.5793 73.294 29.4067 73.3113 29.2145 73.2721C29.0327 73.2322 28.8528 73.1447 28.6749 73.0098C28.4977 72.8853 28.3246 72.7447 28.1557 72.588C27.9973 72.4306 27.8437 72.2676 27.695 72.099C27.5463 71.9304 27.41 71.7873 27.2859 71.6696C26.9803 71.3646 26.675 71.0648 26.37 70.7702C26.0749 70.4644 25.77 70.1698 25.4553 69.8865L25.6466 72.6214ZM39.5596 66.8937C39.3463 66.8559 39.1567 66.7797 38.9907 66.665C38.8352 66.5495 38.7202 66.4101 38.6456 66.2468C38.5815 66.0829 38.5694 65.91 38.6093 65.7281C38.6597 65.5456 38.7793 65.374 38.9681 65.2134C39.127 65.0759 39.3112 64.9998 39.5208 64.9852C39.7304 64.9705 39.9347 64.9562 40.1338 64.9423C40.1287 64.8689 40.1124 64.7121 40.0851 64.4719C40.057 64.2211 40.0327 63.949 40.0122 63.6556C40.0021 63.3615 40.0037 63.0823 40.0168 62.8182C40.0291 62.5435 40.0736 62.3509 40.1501 62.2402C40.3391 61.9321 40.5863 61.778 40.8917 61.7776C41.2068 61.7661 41.4738 61.8949 41.6927 62.1639C41.7382 62.2133 41.7793 62.2736 41.8159 62.3448C41.8629 62.4152 41.8886 62.4818 41.893 62.5447C41.9299 62.9212 41.9563 63.2985 41.9722 63.6764C41.9986 64.0537 42.025 64.4309 42.0514 64.8081L43.2931 64.7212C43.4818 64.708 43.6486 64.7596 43.7936 64.8758C43.9386 64.992 44.0432 65.1321 44.1073 65.2961C44.1819 65.4593 44.2097 65.6311 44.1908 65.8115C44.1823 65.9911 44.1139 66.1433 43.9858 66.2681C43.7587 66.484 43.4831 66.6086 43.159 66.6418C42.8454 66.6743 42.5209 66.7023 42.1856 66.7257C42.2259 67.3021 42.261 67.8788 42.2908 68.4558C42.3312 69.0321 42.3767 69.6081 42.4275 70.1837C42.4451 70.4352 42.4736 70.6912 42.5129 70.9517C42.5626 71.2115 42.5645 71.4641 42.5185 71.7095C42.4793 71.9017 42.4005 72.0547 42.2821 72.1683C42.1644 72.2923 42.0277 72.3703 41.872 72.4023C41.717 72.4447 41.5539 72.4456 41.3825 72.405C41.2119 72.3748 41.0489 72.3019 40.8934 72.1865C40.8149 72.1182 40.7485 71.9965 40.6941 71.8213C40.6502 71.6454 40.616 71.4582 40.5916 71.2599C40.565 71.0301 40.5478 70.7838 40.5399 70.5211C40.5253 70.3115 40.5062 70.0391 40.4828 69.7038C40.4593 69.3685 40.4299 69.023 40.3945 68.6675C40.3688 68.3007 40.3446 67.9549 40.3219 67.6301C40.2991 67.3052 40.2812 67.0485 40.268 66.8599L39.5596 66.8937ZM44.4125 68.0389C44.4646 67.7298 44.5432 67.4242 44.6484 67.122C44.7641 66.8191 44.9071 66.53 45.0774 66.2549C45.247 65.9692 45.4393 65.7083 45.6544 65.4721C45.8801 65.2352 46.1243 65.0391 46.3872 64.8838C46.8517 64.5986 47.3249 64.4392 47.8069 64.4054C48.2987 64.3605 48.7611 64.4229 49.1942 64.5927C49.6273 64.7624 50.0044 65.0362 50.3257 65.4138C50.6462 65.781 50.8727 66.2337 51.0051 66.772C51.0825 67.1246 51.1325 67.4634 51.1552 67.7882C51.1877 68.1018 51.1793 68.4341 51.1302 68.7851C51.0599 69.2849 50.8795 69.7924 50.5891 70.3076C50.3085 70.8117 49.9542 71.2418 49.5264 71.5982C49.1097 71.9643 48.6379 72.2185 48.1108 72.3607C47.5942 72.5021 47.0591 72.4553 46.5057 72.2202C46.2566 72.1218 46.027 72.001 45.8169 71.8578C45.618 71.7243 45.4327 71.5582 45.2608 71.3596C45.0666 71.1416 44.9082 70.9105 44.7859 70.6663C44.6739 70.4214 44.577 70.1649 44.4951 69.8969C44.4012 69.6086 44.3545 69.317 44.3549 69.0222C44.3546 68.7168 44.3708 68.4209 44.4034 68.1343L44.4125 68.0389ZM46.3217 68.237C46.302 68.4068 46.2876 68.5763 46.2783 68.7454C46.2684 68.9041 46.2797 69.0665 46.3124 69.2327C46.3607 69.4715 46.439 69.6872 46.5472 69.8797C46.666 70.0714 46.8079 70.2194 46.9732 70.3237C47.1489 70.4273 47.3419 70.4769 47.5522 70.4727C47.7618 70.4581 47.9823 70.3742 48.2138 70.2211C48.5052 70.0217 48.7481 69.7309 48.9425 69.3488C49.1362 68.9562 49.2453 68.5589 49.2698 68.1571C49.2936 67.7447 49.2249 67.3652 49.0638 67.0184C48.9019 66.6612 48.6164 66.4179 48.2072 66.2886C47.9452 66.3069 47.7079 66.3762 47.4951 66.4964C47.2817 66.6061 47.097 66.7506 46.9411 66.93C46.7949 67.0982 46.6666 67.2967 46.5563 67.5256C46.4564 67.7537 46.3782 67.9908 46.3217 68.237ZM63.6507 68.4934C63.9009 68.3074 64.1421 68.2169 64.3741 68.2217C64.6165 68.2258 64.8163 68.2961 64.9732 68.4325C65.1399 68.5577 65.237 68.7405 65.2643 68.9807C65.3014 69.2098 65.24 69.4616 65.0802 69.736C64.9774 69.9222 64.8211 70.0963 64.6113 70.2584C64.412 70.4198 64.2158 70.5494 64.0225 70.6471C63.5761 70.889 63.1164 71.0159 62.6434 71.0279C62.1704 71.04 61.7222 70.9555 61.2989 70.7745C60.886 70.5928 60.5201 70.3288 60.201 69.9826C59.8812 69.6259 59.6517 69.205 59.5124 68.7198C59.2369 67.7914 59.2154 66.882 59.4479 65.9918C59.5412 65.6693 59.6562 65.3559 59.7928 65.0515C59.9399 64.7464 60.1203 64.4653 60.334 64.2081C60.5477 63.951 60.7898 63.7234 61.0602 63.5255C61.3299 63.3171 61.6303 63.1697 61.9612 63.0834C62.1888 63.0253 62.4826 63.01 62.8425 63.0375C63.2017 63.0545 63.5537 63.1194 63.8986 63.2321C64.2539 63.3442 64.565 63.5014 64.8319 63.7039C65.1093 63.9056 65.2743 64.1573 65.327 64.459C65.3597 64.6252 65.3497 64.7838 65.2971 64.9349C65.2438 65.0755 65.1628 65.197 65.0541 65.2994C64.9454 65.4018 64.814 65.4794 64.6597 65.5323C64.5152 65.574 64.3629 65.5794 64.2028 65.5485C64.0105 65.5093 63.8538 65.4518 63.7327 65.3761C63.6213 65.2891 63.4714 65.1785 63.283 65.0443C63.1977 65.0292 63.1169 65.0032 63.0406 64.9664C62.9636 64.9192 62.8836 64.9037 62.8005 64.9201L62.3794 64.9969C62.309 65.044 62.2434 65.0854 62.1827 65.1212C62.1221 65.1571 62.0614 65.1929 62.0007 65.2287C61.6694 65.6099 61.4353 66.0265 61.2984 66.4783C61.1608 66.9197 61.1515 67.3889 61.2705 67.886C61.3457 68.2072 61.4639 68.4674 61.6253 68.6667C61.7971 68.8653 61.9855 68.9996 62.1905 69.0695C62.4052 69.1281 62.6308 69.1176 62.8675 69.0379C63.1145 68.9574 63.3509 68.7987 63.5765 68.5618L63.6507 68.4934ZM68.8926 69.6746C68.854 70.0248 68.735 70.2806 68.5357 70.4419C68.3371 70.6138 68.1222 70.7025 67.8909 70.7082C67.6701 70.7131 67.4644 70.6327 67.2738 70.467C67.0944 70.3111 66.9941 70.0812 66.9728 69.7773L66.3614 61.0381C66.3445 60.797 66.4245 60.5861 66.6014 60.4053C66.7783 60.2244 66.9805 60.1049 67.2081 60.0469C67.4357 59.9889 67.6531 60.0105 67.8603 60.1118C68.0674 60.2132 68.1925 60.4203 68.2354 60.7332C68.3155 61.2751 68.3686 61.8085 68.3948 62.3331C68.4307 62.8466 68.4618 63.3657 68.4879 63.8903C68.8573 63.6012 69.2487 63.4001 69.6619 63.2869C70.0745 63.1633 70.4779 63.1351 70.8722 63.2023C71.2665 63.2694 71.6413 63.4328 71.9964 63.6922C72.3515 63.9517 72.6514 64.3256 72.8962 64.8139C73.0664 65.139 73.1912 65.4935 73.2707 65.8776C73.3495 66.2511 73.4028 66.637 73.4307 67.0352C73.4683 67.4222 73.4902 67.8102 73.4964 68.1994C73.513 68.5879 73.5334 68.955 73.5576 69.3008C73.573 69.5208 73.5293 69.724 73.4265 69.9102C73.3237 70.0964 73.1862 70.2376 73.0139 70.3339C72.8521 70.4295 72.6706 70.4685 72.4693 70.451C72.2784 70.4328 72.0975 70.3296 71.9264 70.1415C71.7545 69.9429 71.6378 69.7036 71.576 69.4236C71.5248 69.1429 71.4934 68.845 71.4819 68.5299C71.4801 68.2036 71.4833 67.8717 71.4912 67.5342C71.4992 67.1967 71.4821 66.8767 71.4399 66.5743C71.4074 66.2606 71.3296 65.9765 71.2065 65.7219C71.0834 65.4672 70.8849 65.2653 70.6112 65.1159C70.3995 65.0992 70.212 65.1281 70.0487 65.2027C69.8847 65.2668 69.7386 65.3613 69.6105 65.4861C69.4823 65.6109 69.3605 65.751 69.245 65.9065C69.14 66.0613 69.0298 66.2164 68.9143 66.3719C68.8865 66.4265 68.8535 66.4815 68.8153 66.5368C68.7763 66.5816 68.7324 66.6321 68.6837 66.6881L68.8926 69.6746ZM81.6954 68.5103C81.8005 68.8083 81.8024 69.0609 81.701 69.268C81.5997 69.4752 81.4465 69.6176 81.2413 69.6951C81.0473 69.7824 80.8269 69.7925 80.58 69.7256C80.3331 69.6586 80.1118 69.5056 79.9161 69.2666C79.6381 69.5072 79.3606 69.6793 79.0835 69.7829C78.8177 69.8963 78.507 69.9706 78.1514 70.0061C77.6185 70.0644 77.1373 70.0349 76.7079 69.9175C76.2792 69.8106 75.9083 69.626 75.5951 69.3636C75.2923 69.1004 75.0582 68.7641 74.8926 68.3545C74.7264 67.9344 74.6448 67.4452 74.6478 66.8869C74.6526 66.6549 74.6735 66.427 74.7105 66.2033C74.758 65.9788 74.8111 65.7592 74.8698 65.5445C74.9375 65.3081 75.0355 65.0538 75.1639 64.7816C75.3027 64.5086 75.4442 64.2723 75.5882 64.0727C76.1056 63.3415 76.7781 62.7943 77.6056 62.431C77.7487 62.3684 77.9444 62.3073 78.193 62.2478C78.4416 62.1883 78.692 62.155 78.9442 62.1478C79.2061 62.1295 79.4546 62.1437 79.6895 62.1905C79.9349 62.2365 80.1208 62.334 80.247 62.4831C80.3501 62.6023 80.4259 62.7076 80.4745 62.7989C80.523 62.8903 80.5509 62.9884 80.5582 63.0932C80.576 63.1972 80.5841 63.3125 80.5824 63.439C80.5905 63.5542 80.6008 63.7009 80.6132 63.8791C80.6337 64.1725 80.6487 64.461 80.658 64.7447C80.677 65.0171 80.7017 65.2944 80.732 65.5766C80.7386 65.6709 80.7474 65.7967 80.7584 65.9539C80.7687 66.1006 80.7849 66.2574 80.8071 66.4243C80.8293 66.5912 80.8512 66.7529 80.8726 66.9094C80.9038 67.0546 80.9385 67.1733 80.9765 67.2654L81.6954 68.5103ZM78.3137 68.0361C78.4238 67.9547 78.5493 67.8669 78.6901 67.7728C78.8303 67.6683 78.9539 67.5543 79.0611 67.431C78.9279 66.8822 78.8314 66.3309 78.7716 65.777C78.7223 65.2223 78.6883 64.6614 78.6697 64.094C78.204 64.2109 77.7939 64.4449 77.4394 64.7961C77.0849 65.1474 76.8497 65.5482 76.7338 65.9985C76.6834 66.1811 76.6438 66.3681 76.6151 66.5597C76.5864 66.7512 76.5835 66.9357 76.6064 67.1131C76.6338 67.3534 76.7109 67.5533 76.8379 67.7129C76.9642 67.862 77.1089 67.973 77.2719 68.0458C77.4454 68.1179 77.6216 68.153 77.8005 68.151C77.9898 68.1483 78.1609 68.11 78.3137 68.0361ZM89.0814 68.2778C89.0683 68.542 88.9838 68.7638 88.8278 68.9431C88.6824 69.1218 88.5063 69.2394 88.2997 69.296C88.1035 69.3518 87.9078 69.3392 87.7126 69.2581C87.5174 69.177 87.3684 69.0031 87.2655 68.7366C87.1506 68.4498 87.0927 68.1484 87.0917 67.8326C87.0899 67.5063 87.0795 67.2069 87.0604 66.9345C87.0208 66.3686 86.9816 65.808 86.9427 65.2526C86.9136 64.6861 86.8531 64.1217 86.7611 63.5595C86.7491 63.5393 86.7376 63.5243 86.7264 63.5145C86.7144 63.4943 86.6916 63.4696 86.658 63.4403C86.4126 63.3943 86.1569 63.428 85.8911 63.5414C85.6252 63.6548 85.4031 63.7914 85.2248 63.9513C85.0667 64.0992 84.9122 64.2996 84.7614 64.5523C84.6204 64.7939 84.5575 65.0247 84.5729 65.2447L84.7247 67.4138C84.7364 67.5815 84.7545 67.7645 84.7789 67.9628C84.8033 68.1612 84.8064 68.3558 84.7882 68.5466C84.7804 68.7367 84.7349 68.9136 84.6515 69.0774C84.5682 69.2412 84.4244 69.3671 84.2199 69.4551C84.1076 69.5051 83.9987 69.5285 83.8931 69.5253C83.7981 69.5215 83.6915 69.5026 83.5733 69.4687C83.3803 69.4191 83.2363 69.3186 83.1415 69.1673C83.0474 69.0264 82.9788 68.8733 82.9356 68.7078C82.8917 68.5319 82.8643 68.3653 82.8533 68.2081C82.852 68.0397 82.8481 67.9084 82.8415 67.8141C82.8246 67.5731 82.7952 67.2276 82.7532 66.7778C82.7209 66.3167 82.6872 65.8347 82.652 65.3317C82.6168 64.8287 82.5835 64.352 82.5519 63.9014C82.5197 63.4403 82.4951 63.0893 82.4783 62.8483C82.4621 62.6177 82.517 62.4244 82.643 62.2681C82.7682 62.1014 82.9184 61.9909 83.0936 61.9365C83.2786 61.8709 83.4732 61.8678 83.6774 61.9272C83.8914 61.9754 84.0738 62.0996 84.2247 62.2996C84.6248 61.9978 85.073 61.7822 85.5694 61.6527C86.0658 61.5232 86.5384 61.5059 86.9873 61.6009C87.4467 61.6951 87.8352 61.9048 88.1528 62.2301C88.4809 62.5546 88.6714 63.0204 88.7244 63.6275C88.7259 63.6484 88.7355 63.7109 88.7533 63.815C88.7712 63.919 88.7867 64.0654 88.7999 64.254L89.0814 68.2778ZM91.3173 71.8332C91.1237 71.6256 91.0133 71.4017 90.9859 71.1614C90.9593 70.9316 90.9978 70.7288 91.1013 70.5531C91.2049 70.3774 91.3592 70.2508 91.5644 70.1732C91.7801 70.095 92.0233 70.1095 92.294 70.2169C92.4152 70.2927 92.5243 70.3483 92.6216 70.3836C92.7188 70.4189 92.8542 70.4726 93.0277 70.5447C93.19 70.607 93.3719 70.647 93.5731 70.6645C93.7752 70.6925 93.9645 70.6897 94.1412 70.6563C94.496 70.6104 94.7641 70.5285 94.9453 70.4105C95.1378 70.3023 95.2701 70.1614 95.3422 69.9879C95.4151 69.8248 95.4483 69.6224 95.4419 69.3807C95.4467 69.1487 95.4389 68.886 95.4184 68.5926C95.0911 68.7313 94.7616 68.8386 94.43 68.9145C94.0991 69.0008 93.754 69.0355 93.3948 69.0185C92.6973 68.983 92.109 68.7767 91.6298 68.3996C91.1611 68.0217 90.8022 67.5572 90.553 67.006C90.3144 66.4541 90.1884 65.8574 90.1751 65.216C90.1715 64.5634 90.2817 63.9555 90.5055 63.3923C90.6407 63.0669 90.8354 62.7637 91.0895 62.4827C91.3429 62.1912 91.6314 61.9499 91.9549 61.7587C92.2883 61.5564 92.6365 61.4162 92.9996 61.3382C93.3731 61.2594 93.7369 61.2655 94.0907 61.3566C94.295 61.416 94.4939 61.4758 94.6877 61.5359C94.8814 61.5961 95.0714 61.6776 95.2576 61.7804C95.4443 61.5883 95.6686 61.4831 95.9305 61.4648C96.203 61.4457 96.4423 61.5553 96.6485 61.7936C96.6948 61.8536 96.7471 61.9236 96.8054 62.0038C96.8629 62.0735 96.8942 62.145 96.8994 62.2183C96.9883 63.3388 97.0667 64.46 97.1347 65.582C97.2124 66.6928 97.2905 67.8087 97.369 68.93C97.4005 69.3805 97.3669 69.8041 97.2683 70.2006C97.1802 70.5964 97.0259 70.9494 96.8054 71.2597C96.5856 71.5804 96.3042 71.8476 95.9611 72.0611C95.6181 72.2747 95.2126 72.4241 94.7447 72.5095C94.5052 72.5473 94.2701 72.5743 94.0396 72.5904C93.8091 72.6066 93.5715 72.5969 93.3268 72.5613C92.9871 72.5219 92.6549 72.4399 92.3303 72.3152C92.0161 72.1897 91.7009 72.0486 91.3845 71.8917L91.3173 71.8332ZM92.8366 66.9094C93.313 67.0972 93.7425 67.1409 94.1251 67.0404C94.507 66.9294 94.8875 66.7238 95.2666 66.4235L95.0917 63.9243C94.7666 63.6417 94.4533 63.453 94.1518 63.3583C93.8601 63.2523 93.517 63.2395 93.1224 63.3197C93.052 63.3668 92.9812 63.4086 92.9101 63.4452C92.8494 63.481 92.7835 63.5172 92.7123 63.5538C92.5099 63.8207 92.3595 64.0786 92.2611 64.3277C92.1619 64.5663 92.1107 64.8121 92.1073 65.065C92.1032 65.3075 92.1365 65.5579 92.2072 65.8162C92.2877 66.0633 92.3962 66.3347 92.5327 66.6306C92.5678 66.6808 92.6187 66.7299 92.6852 66.7778C92.7517 66.8258 92.8022 66.8697 92.8366 66.9094ZM104.188 65.515C104.435 65.4345 104.655 65.4191 104.848 65.4688C105.051 65.5073 105.209 65.5909 105.323 65.7198C105.438 65.8487 105.497 66.0131 105.5 66.2129C105.504 66.4127 105.429 66.6285 105.277 66.8603C105.153 67.048 104.975 67.2131 104.743 67.3557C104.511 67.4984 104.292 67.6137 104.088 67.7017C103.588 67.9262 103.11 68.0913 102.654 68.1969C102.198 68.3025 101.763 68.3329 101.349 68.2882C100.946 68.2427 100.558 68.1172 100.186 67.9115C99.8236 67.7052 99.476 67.4031 99.1428 67.0052C98.9134 66.7369 98.7339 66.4283 98.6042 66.0794C98.4842 65.7192 98.4058 65.3509 98.3689 64.9744C98.332 64.5979 98.3374 64.2237 98.3851 63.8518C98.4328 63.4799 98.5145 63.1425 98.6302 62.8396C98.7827 62.4604 99.0422 62.1053 99.4086 61.7743C99.7751 61.4432 100.188 61.1722 100.647 60.961C101.106 60.7499 101.581 60.6166 102.072 60.5612C102.562 60.4953 103.002 60.5382 103.392 60.69C103.717 60.8147 103.999 61.0108 104.239 61.2783C104.488 61.5347 104.666 61.8223 104.773 62.1413C104.88 62.4603 104.908 62.79 104.858 63.1304C104.818 63.4597 104.671 63.77 104.418 64.0615C104.174 64.3418 103.901 64.5768 103.598 64.7665C103.295 64.9457 102.98 65.1098 102.653 65.259C102.326 65.3978 101.987 65.5215 101.637 65.6303C101.297 65.7383 100.968 65.8561 100.651 65.9836C100.888 66.2197 101.151 66.3645 101.439 66.4181C101.727 66.4611 102.021 66.4511 102.322 66.3879C102.633 66.324 102.942 66.2182 103.247 66.0704C103.552 65.9122 103.835 65.745 104.097 65.5687L104.188 65.515ZM100.824 63.0336C100.592 63.1867 100.426 63.3721 100.325 63.5897C100.224 63.7969 100.16 64.0857 100.133 64.4561C100.4 64.3532 100.698 64.2429 101.026 64.1251C101.365 64.0066 101.683 63.8843 101.98 63.7583C102.276 63.6322 102.525 63.499 102.726 63.3586C102.927 63.2182 103.022 63.0746 103.012 62.9279C103.006 62.8441 102.985 62.7666 102.948 62.6954C102.921 62.6131 102.865 62.5591 102.779 62.5335C102.478 62.4493 102.173 62.4496 101.863 62.5345C101.553 62.6193 101.297 62.7267 101.095 62.8567L100.824 63.0336Z"
    fill="#1D1D1D"
  />
  <path
    d="M24.3249 82.3131C24.436 82.0947 24.5833 81.9423 24.7667 81.8557C24.9495 81.7587 25.1314 81.7249 25.3125 81.7543C25.504 81.7831 25.673 81.866 25.8195 82.0032C25.9765 82.1396 26.0791 82.3272 26.1274 82.5661C26.1609 82.7427 26.1418 82.9968 26.0702 83.3282C26.0091 83.6589 25.9225 84.0019 25.8105 84.3573C25.709 84.7119 25.6011 85.0511 25.4868 85.375C25.3726 85.6989 25.2798 85.9528 25.2084 86.1368C24.9072 86.9477 24.5733 87.745 24.207 88.5288C23.8406 89.3126 23.4634 90.0919 23.0754 90.8667C23.0205 90.9863 22.9571 91.1329 22.885 91.3064C22.8129 91.48 22.7359 91.6591 22.6541 91.8438C22.5827 92.0278 22.5054 92.2017 22.4221 92.3655C22.3388 92.5293 22.2577 92.6508 22.1791 92.73C22.0029 92.9213 21.8164 93.0397 21.6195 93.0851C21.4226 93.1304 21.2374 93.1171 21.0638 93.045C20.9008 92.9721 20.7606 92.8503 20.6434 92.6795C20.5366 92.508 20.4849 92.2957 20.4883 92.0428C20.4922 91.9477 20.5253 91.819 20.5876 91.6567C20.6507 91.5049 20.7236 91.3418 20.8061 91.1676C20.8894 91.0038 20.9731 90.8453 21.0572 90.692C21.1412 90.5387 21.2061 90.413 21.2519 90.3151C21.4373 89.9546 21.6122 89.5949 21.7766 89.2359C21.9515 88.8761 22.1264 88.5164 22.3013 88.1567C21.5694 87.6287 20.9222 87.0317 20.3596 86.3655C19.8067 85.6882 19.3644 84.9347 19.0326 84.1049C18.9699 83.9619 18.9073 83.8189 18.8446 83.6758C18.7819 83.5328 18.7556 83.382 18.7656 83.2233C18.774 83.0437 18.8102 82.8832 18.874 82.7419C18.9476 82.5893 19.0443 82.4667 19.1642 82.3741C19.2833 82.271 19.4211 82.2087 19.5776 82.1872C19.7445 82.165 19.9147 82.1899 20.0883 82.262C20.2296 82.3258 20.3417 82.4233 20.4246 82.5544C20.5172 82.6743 20.5952 82.811 20.6586 82.9645C20.7213 83.1075 20.7738 83.2565 20.8163 83.4115C20.8692 83.5658 20.9262 83.7039 20.9874 83.826C21.4792 84.8341 22.1751 85.6752 23.0752 86.3493C23.3351 85.6993 23.5635 85.0515 23.7606 84.4059C23.9568 83.7499 24.1262 83.0852 24.2686 82.4118L24.3249 82.3131ZM26.6202 85.3431C26.6723 85.0341 26.751 84.7285 26.8562 84.4263C26.9719 84.1233 27.1149 83.8343 27.2852 83.5591C27.4547 83.2735 27.6471 83.0126 27.8622 82.7764C28.0878 82.5395 28.3321 82.3434 28.595 82.1881C29.0594 81.9029 29.5326 81.7434 30.0147 81.7097C30.5064 81.6647 30.9688 81.7271 31.4019 81.8969C31.835 82.0667 32.2122 82.3404 32.5334 82.718C32.854 83.0852 33.0805 83.538 33.2129 84.0763C33.2902 84.4289 33.3402 84.7676 33.363 85.0924C33.3954 85.4061 33.3871 85.7384 33.3379 86.0893C33.2676 86.5891 33.0873 87.0966 32.7969 87.6119C32.5162 88.1159 32.162 88.5461 31.7341 88.9024C31.3175 89.2686 30.8456 89.5227 30.3185 89.6649C29.8019 89.8063 29.2669 89.7595 28.7134 89.5245C28.4643 89.4261 28.2348 89.3052 28.0247 89.162C27.8258 89.0285 27.6404 88.8624 27.4686 88.6639C27.2743 88.4458 27.116 88.2147 26.9936 87.9705C26.8817 87.7256 26.7848 87.4692 26.7028 87.2011C26.609 86.9129 26.5622 86.6213 26.5627 86.3264C26.5624 86.0211 26.5785 85.7251 26.6111 85.4385L26.6202 85.3431ZM28.5295 85.5412C28.5098 85.7111 28.4953 85.8805 28.4861 86.0497C28.4761 86.2083 28.4875 86.3707 28.5202 86.5369C28.5685 86.7757 28.6468 86.9914 28.755 87.1839C28.8737 87.3757 29.0157 87.5237 29.1809 87.6279C29.3567 87.7315 29.5497 87.7812 29.76 87.777C29.9696 87.7623 30.1901 87.6784 30.4216 87.5253C30.713 87.3259 30.9559 87.0352 31.1503 86.653C31.3439 86.2604 31.453 85.8631 31.4776 85.4613C31.5014 85.049 31.4327 84.6694 31.2715 84.3227C31.1097 83.9654 30.8241 83.7222 30.4149 83.5928C30.153 83.6112 29.9156 83.6804 29.7029 83.8006C29.4894 83.9103 29.3048 84.0549 29.1488 84.2343C29.0026 84.4024 28.8744 84.601 28.764 84.8298C28.6642 85.0579 28.586 85.2951 28.5295 85.5412ZM41.5349 86.8425C41.6387 86.9722 41.7025 87.1309 41.7261 87.3188C41.7596 87.4955 41.7507 87.6698 41.6996 87.8419C41.6582 88.0027 41.573 88.1403 41.4441 88.2546C41.3257 88.3682 41.1614 88.4271 40.951 88.4313C40.6771 88.4294 40.4505 88.3505 40.2711 88.1946C40.0917 88.0386 39.9213 87.861 39.76 87.6617C39.3747 88.0256 38.9665 88.2858 38.5352 88.4424C38.1151 88.6087 37.6929 88.6698 37.2686 88.6258C36.8443 88.5818 36.4393 88.4363 36.0535 88.1896C35.6669 87.9323 35.3314 87.5767 35.0469 87.1227C34.7856 86.6988 34.6205 86.2207 34.5517 85.6885C34.4933 85.1555 34.4525 84.6477 34.4293 84.1649C34.4176 83.9972 34.4114 83.8345 34.4109 83.6765C34.4097 83.5082 34.408 83.3345 34.4061 83.1556C34.407 83.0187 34.4031 82.8873 34.3943 82.7616C34.3848 82.6254 34.3812 82.4993 34.3836 82.3833C34.3965 82.2665 34.4199 82.1491 34.4537 82.0309C34.4981 81.9119 34.5637 81.7968 34.6507 81.6854C34.7669 81.5404 34.9133 81.4511 35.09 81.4177C35.2659 81.3738 35.4347 81.3778 35.5963 81.4297C35.7683 81.4808 35.9168 81.5705 36.0416 81.6986C36.1761 81.8156 36.2552 81.968 36.2789 82.1559C36.3372 82.6888 36.3593 83.2296 36.345 83.7781C36.3412 84.326 36.3839 84.86 36.4729 85.3803C36.5115 85.6303 36.5923 85.8826 36.7154 86.1373C36.849 86.3912 37.0404 86.5673 37.2894 86.6657C37.5378 86.7537 37.7784 86.7316 38.0114 86.5994C38.254 86.4561 38.4481 86.2951 38.5936 86.1164C38.6611 86.0275 38.7229 85.9336 38.7792 85.8349C38.8452 85.725 38.9176 85.6304 38.9963 85.5512C38.9287 85.1874 38.8769 84.8225 38.8407 84.4565C38.8046 84.0904 38.7789 83.7237 38.7637 83.3562C38.7498 83.1571 38.74 82.9419 38.7344 82.7106C38.7385 82.4682 38.7646 82.2399 38.8128 82.026C38.8708 81.8008 38.9624 81.6048 39.0876 81.4381C39.2121 81.2609 39.3986 81.1426 39.6472 81.0831C39.761 81.0541 39.8717 81.0568 39.9794 81.0914C40.0976 81.1253 40.2012 81.1759 40.2902 81.2434C40.4457 81.3589 40.5551 81.4934 40.6185 81.6469C40.6819 81.8004 40.7198 81.9663 40.7323 82.1444C40.7448 82.3225 40.7419 82.507 40.7236 82.6978C40.7151 82.8774 40.7112 83.0462 40.7117 83.2041C40.7112 83.499 40.7172 83.8092 40.7294 84.1348C40.7417 84.4603 40.7749 84.7844 40.829 85.1071C40.8832 85.4297 40.9628 85.7401 41.0679 86.0381C41.1835 86.3354 41.3391 86.6035 41.5349 86.8425ZM42.9772 83.1404C42.9801 83.1823 42.9846 83.1714 42.9907 83.1078C42.996 83.0337 42.982 82.9084 42.9486 82.7317C42.7743 82.6491 42.6349 82.5378 42.5303 82.3977C42.4258 82.2576 42.3571 82.1044 42.3244 81.9382C42.3022 81.7713 42.3227 81.6119 42.3858 81.4601C42.4586 81.297 42.5804 81.1569 42.7512 81.0396C42.9827 80.8865 43.2428 80.842 43.5316 80.9061C43.8309 80.9694 44.0912 81.0775 44.3125 81.2305C44.5605 81.0131 44.8212 80.8264 45.0946 80.6703C45.368 80.5143 45.65 80.4051 45.9404 80.3426C46.2302 80.2697 46.5292 80.2541 46.8375 80.2957C47.1457 80.3373 47.4536 80.4474 47.7609 80.6259C47.9142 80.71 48.0588 80.821 48.1949 80.9589C48.3301 81.0863 48.4197 81.238 48.4636 81.4139C48.5343 81.6722 48.5295 81.9042 48.4491 82.1099C48.368 82.3051 48.2469 82.4557 48.0859 82.5618C47.9241 82.6573 47.7373 82.6967 47.5255 82.68C47.313 82.6527 47.1059 82.5514 46.904 82.376C46.8382 82.3384 46.7889 82.3103 46.756 82.2915C46.7328 82.2616 46.6779 82.2286 46.5911 82.1925C46.4205 82.1623 46.2536 82.1845 46.0903 82.2591C45.9375 82.333 45.7866 82.4331 45.6375 82.5593C45.4981 82.6744 45.3651 82.8048 45.2384 82.9506C45.1214 83.0851 45.0142 83.2084 44.9168 83.3206L45.1972 87.3287C45.2082 87.4858 45.1874 87.64 45.1348 87.7911C45.0574 88.0387 44.9171 88.217 44.7142 88.326C44.5217 88.4342 44.3192 88.4747 44.1067 88.4474C43.9046 88.4195 43.7192 88.3271 43.5503 88.1705C43.3918 88.0131 43.3034 87.8034 43.2851 87.5414L42.9772 83.1404ZM60.889 84.746C61.1393 84.56 61.3804 84.4694 61.6124 84.4743C61.8549 84.4784 62.0546 84.5486 62.2115 84.6851C62.3783 84.8103 62.4753 84.993 62.5026 85.2333C62.5397 85.4624 62.4784 85.7141 62.3185 85.9886C62.2157 86.1748 62.0594 86.3489 61.8497 86.511C61.6503 86.6724 61.4541 86.8019 61.2608 86.8997C60.8144 87.1415 60.3547 87.2685 59.8817 87.2805C59.4087 87.2925 58.9606 87.2081 58.5372 87.0271C58.1244 86.8454 57.7584 86.5814 57.4393 86.2352C57.1195 85.8785 56.89 85.4575 56.7508 84.9724C56.4752 84.0439 56.4537 83.1346 56.6863 82.2443C56.7795 81.9219 56.8945 81.6085 57.0311 81.3041C57.1783 80.999 57.3587 80.7178 57.5723 80.4607C57.786 80.2035 58.0281 79.976 58.2985 79.7781C58.5683 79.5697 58.8686 79.4223 59.1995 79.336C59.4271 79.2779 59.7209 79.2626 60.0808 79.2901C60.44 79.3071 60.7921 79.3719 61.1369 79.4847C61.4922 79.5967 61.8033 79.754 62.0702 79.9564C62.3476 80.1582 62.5126 80.4099 62.5653 80.7116C62.598 80.8777 62.5881 81.0364 62.5355 81.1875C62.4821 81.3281 62.4011 81.4496 62.2924 81.552C62.1838 81.6544 62.0523 81.732 61.8981 81.7849C61.7536 81.8266 61.6013 81.832 61.4411 81.8011C61.2489 81.7619 61.0922 81.7044 60.971 81.6286C60.8596 81.5417 60.7097 81.4311 60.5213 81.2968C60.436 81.2817 60.3553 81.2558 60.279 81.219C60.2019 81.1718 60.1219 81.1563 60.0388 81.1726L59.6177 81.2495C59.5473 81.2965 59.4817 81.338 59.4211 81.3738C59.3604 81.4096 59.2997 81.4455 59.2391 81.4813C58.9077 81.8625 58.6736 82.279 58.5367 82.7309C58.3991 83.1722 58.3898 83.6415 58.5089 84.1386C58.584 84.4598 58.7022 84.72 58.8636 84.9193C59.0354 85.1179 59.2238 85.2521 59.4288 85.322C59.6435 85.3807 59.8692 85.3702 60.1058 85.2905C60.3529 85.21 60.5892 85.0513 60.8148 84.8144L60.889 84.746ZM63.1131 82.7898C63.1652 82.4807 63.2439 82.1751 63.3491 81.8729C63.4648 81.57 63.6078 81.2809 63.7781 81.0058C63.9476 80.7201 64.14 80.4592 64.3551 80.223C64.5807 79.9861 64.825 79.79 65.0879 79.6347C65.5523 79.3495 66.0255 79.19 66.5076 79.1563C66.9993 79.1114 67.4617 79.1738 67.8948 79.3436C68.3279 79.5133 68.7051 79.7871 69.0263 80.1647C69.3469 80.5319 69.5734 80.9846 69.7058 81.5229C69.7831 81.8755 69.8331 82.2143 69.8559 82.5391C69.8883 82.8527 69.88 83.185 69.8308 83.5359C69.7605 84.0358 69.5802 84.5433 69.2898 85.0585C69.0091 85.5626 68.6549 85.9927 68.227 86.3491C67.8104 86.7152 67.3385 86.9694 66.8114 87.1116C66.2948 87.253 65.7598 87.2062 65.2063 86.9711C64.9572 86.8727 64.7277 86.7519 64.5176 86.6087C64.3187 86.4752 64.1333 86.3091 63.9615 86.1105C63.7672 85.8925 63.6089 85.6614 63.4865 85.4172C63.3746 85.1723 63.2777 84.9158 63.1957 84.6478C63.1019 84.3595 63.0551 84.0679 63.0556 83.7731C63.0553 83.4677 63.0714 83.1718 63.104 82.8852L63.1131 82.7898ZM65.0224 82.9879C65.0027 83.1577 64.9882 83.3272 64.979 83.4963C64.969 83.655 64.9804 83.8174 65.0131 83.9836C65.0614 84.2224 65.1397 84.4381 65.2479 84.6306C65.3666 84.8223 65.5086 84.9703 65.6738 85.0746C65.8496 85.1781 66.0426 85.2278 66.2529 85.2236C66.4625 85.209 66.683 85.1251 66.9145 84.972C67.2059 84.7726 67.4488 84.4818 67.6432 84.0997C67.8368 83.7071 67.9459 83.3098 67.9705 82.908C67.9943 82.4956 67.9256 82.1161 67.7644 81.7693C67.6026 81.4121 67.317 81.1688 66.9078 81.0395C66.6459 81.0578 66.4085 81.1271 66.1958 81.2473C65.9823 81.357 65.7977 81.5015 65.6417 81.6809C65.4955 81.8491 65.3673 82.0476 65.2569 82.2765C65.1571 82.5046 65.0789 82.7417 65.0224 82.9879ZM73.1526 84.883C73.2752 84.9798 73.3791 85.1094 73.4641 85.2719C73.559 85.4232 73.6122 85.5827 73.624 85.7504C73.6455 85.9068 73.619 86.0561 73.5447 86.1982C73.4817 86.35 73.3531 86.4696 73.1592 86.5569C73.0057 86.6202 72.8335 86.6428 72.6427 86.6246C72.4519 86.6063 72.2588 86.5567 72.0636 86.4756C71.8789 86.3937 71.7084 86.2898 71.5522 86.1638C71.4071 86.0476 71.2977 85.9131 71.2238 85.7604C71.1992 85.7094 71.1795 85.6529 71.1646 85.5908C71.149 85.5181 71.1393 85.4556 71.1357 85.4032L70.5253 76.6797C70.5084 76.4387 70.5832 76.2281 70.7496 76.048C70.9265 75.8671 71.1239 75.7533 71.3417 75.7065C71.4458 75.6887 71.5569 75.6967 71.6751 75.7305C71.8038 75.7636 71.9234 75.8184 72.0341 75.8949C72.144 75.961 72.2341 76.0442 72.3043 76.1446C72.385 76.2442 72.4293 76.3517 72.4374 76.4669C72.4565 76.7394 72.4818 77.1009 72.5133 77.5515C72.5448 78.0021 72.5793 78.4946 72.6167 79.029C72.6645 79.5627 72.7086 80.1177 72.749 80.694C72.7885 81.2599 72.8214 81.8051 72.8476 82.3298C72.8843 82.8537 72.918 83.3357 72.9488 83.7758C72.9788 84.2055 72.9978 84.5516 73.0057 84.8143L73.1526 84.883ZM74.393 82.0005C74.4451 81.6915 74.5237 81.3859 74.629 81.0837C74.7447 80.7808 74.8876 80.4917 75.0579 80.2165C75.2275 79.9309 75.4198 79.67 75.635 79.4338C75.8606 79.1969 76.1048 79.0008 76.3678 78.8455C76.8322 78.5603 77.3054 78.4008 77.7874 78.3671C78.2792 78.3222 78.7416 78.3846 79.1747 78.5543C79.6078 78.7241 79.985 78.9978 80.3062 79.3755C80.6267 79.7427 80.8532 80.1954 80.9857 80.7337C81.063 81.0863 81.113 81.425 81.1357 81.7499C81.1682 82.0635 81.1599 82.3958 81.1107 82.7467C81.0404 83.2466 80.86 83.7541 80.5697 84.2693C80.289 84.7733 79.9348 85.2035 79.5069 85.5599C79.0903 85.926 78.6184 86.1801 78.0913 86.3223C77.5747 86.4638 77.0397 86.417 76.4862 86.1819C76.2371 86.0835 76.0075 85.9627 75.7974 85.8194C75.5986 85.6859 75.4132 85.5199 75.2414 85.3213C75.0471 85.1032 74.8888 84.8721 74.7664 84.628C74.6545 84.3831 74.5576 84.1266 74.4756 83.8586C74.3817 83.5703 74.335 83.2787 74.3354 82.9838C74.3351 82.6785 74.3513 82.3825 74.3839 82.0959L74.393 82.0005ZM76.3023 82.1986C76.2826 82.3685 76.2681 82.538 76.2589 82.7071C76.2489 82.8658 76.2603 83.0282 76.293 83.1944C76.3413 83.4332 76.4195 83.6488 76.5278 83.8413C76.6465 84.0331 76.7885 84.1811 76.9537 84.2854C77.1294 84.3889 77.3225 84.4386 77.5328 84.4344C77.7423 84.4197 77.9629 84.3359 78.1943 84.1828C78.4858 83.9834 78.7287 83.6926 78.9231 83.3105C79.1167 82.9178 79.2258 82.5206 79.2503 82.1187C79.2741 81.7064 79.2055 81.3268 79.0443 80.9801C78.8824 80.6229 78.5969 80.3796 78.1877 80.2503C77.9257 80.2686 77.6884 80.3379 77.4757 80.4581C77.2622 80.5678 77.0775 80.7123 76.9216 80.8917C76.7754 81.0599 76.6472 81.2584 76.5368 81.4872C76.4369 81.7154 76.3588 81.9525 76.3023 82.1986ZM82.4845 80.3761C82.4875 80.418 82.492 80.4072 82.498 80.3436C82.5034 80.2695 82.4894 80.1441 82.4559 79.9674C82.2817 79.8849 82.1423 79.7735 82.0377 79.6334C81.9331 79.4933 81.8645 79.3402 81.8318 79.174C81.8096 79.007 81.83 78.8477 81.8931 78.6958C81.9659 78.5328 82.0878 78.3926 82.2586 78.2754C82.49 78.1223 82.7502 78.0778 83.039 78.1418C83.3382 78.2051 83.5985 78.3133 83.8198 78.4663C84.0679 78.2488 84.3286 78.0621 84.602 77.9061C84.8754 77.7501 85.1573 77.6408 85.4478 77.5784C85.7375 77.5055 86.0365 77.4898 86.3448 77.5314C86.6531 77.573 86.9609 77.6831 87.2682 77.8617C87.4215 77.9457 87.5662 78.0567 87.7022 78.1946C87.8375 78.322 87.9271 78.4737 87.971 78.6497C88.0417 78.908 88.0369 79.14 87.9565 79.3457C87.8754 79.5409 87.7543 79.6915 87.5932 79.7975C87.4314 79.8931 87.2447 79.9325 87.0329 79.9157C86.8204 79.8885 86.6132 79.7871 86.4114 79.6117C86.3456 79.5742 86.2962 79.5461 86.2633 79.5273C86.2402 79.4973 86.1852 79.4643 86.0985 79.4283C85.9279 79.3981 85.7609 79.4203 85.5977 79.4949C85.4449 79.5688 85.2939 79.6688 85.1448 79.7951C85.0055 79.9102 84.8724 80.0406 84.7457 80.1863C84.6288 80.3209 84.5216 80.4442 84.4241 80.5563L84.7046 84.5644C84.7156 84.7216 84.6948 84.8757 84.6422 85.0268C84.5647 85.2744 84.4245 85.4527 84.2215 85.5617C84.029 85.6699 83.8265 85.7104 83.614 85.6832C83.412 85.6552 83.2265 85.5629 83.0576 85.4062C82.8992 85.2488 82.8108 85.0391 82.7925 84.7772L82.4845 80.3761ZM89.2297 84.39C89.2436 84.1363 89.3022 83.9216 89.4058 83.7458C89.5191 83.5589 89.6566 83.4177 89.8184 83.3221C89.9907 83.2258 90.1711 83.1711 90.3597 83.1579C90.5476 83.1342 90.7283 83.1584 90.9018 83.2305C91.0754 83.3026 91.2204 83.4188 91.3369 83.5791C91.4639 83.7387 91.5414 83.9439 91.5695 84.1947C91.6169 84.5704 91.5322 84.8659 91.3156 85.0811C91.0998 85.3068 90.8507 85.4348 90.5685 85.4651C90.2864 85.4954 90.0077 85.4254 89.7325 85.2551C89.4678 85.0841 89.3002 84.7957 89.2297 84.39ZM88.7798 75.7026C88.8565 75.4445 88.974 75.2415 89.1321 75.0935C89.2895 74.9351 89.4569 74.8444 89.6343 74.8214C89.8222 74.7978 90.0043 74.8429 90.1808 74.957C90.367 75.0598 90.5217 75.2385 90.6448 75.4931C90.7039 76.0365 90.7555 76.5489 90.7997 77.0302C90.8544 77.5107 90.8975 77.9763 90.929 78.4269C90.971 78.8767 91.0022 79.3221 91.0225 79.7629C91.0428 80.2038 91.0586 80.6555 91.0699 81.118C91.0822 81.4436 90.9894 81.6975 90.7915 81.8798C90.6034 82.0509 90.3885 82.1397 90.1468 82.1461C89.9155 82.1517 89.6945 82.0777 89.4836 81.924C89.2833 81.7695 89.1721 81.5351 89.1501 81.2207L88.7707 75.798L88.7798 75.7026Z"
    fill="#1D1D1D"
  />
  <path
    d="M44.5288 50.9114C36.5989 45.6524 30.8472 37.6941 28.3422 28.5145C25.8371 19.3349 26.749 9.55805 30.9083 1.00002"
    stroke="#1D1D1D"
    stroke-width="2"
    stroke-linecap="round"
    stroke-linejoin="round"
  />
  <path
    d="M26.21 4.73176L30.9083 1.00002L31.791 6.93475"
    stroke="#1D1D1D"
    stroke-width="2"
    stroke-linecap="round"
    stroke-linejoin="round"
  />
</svg>
